<?xml version="1.0" encoding="utf-8"?>
<!-- Generator: Adobe Illustrator 25.0.1, SVG Export Plug-In . SVG Version: 6.00 Build 0)  -->
<svg version="1.1" id="Layer_1" xmlns="http://www.w3.org/2000/svg" xmlns:xlink="http://www.w3.org/1999/xlink" x="0px" y="0px"
	 viewBox="0 0 1108 192" style="enable-background:new 0 0 1108 192;" xml:space="preserve">
<style type="text/css">
	.st0{fill:#F15929;}
	.st1{fill:#FEE259;}
	.st2{fill:#81439A;}
	.st3{clip-path:url(#SVGID_3_);}
</style>
<g>
	<g>
		<path class="st0" d="M231.8,71.2c3.4-0.9,6.9-1.6,10.3-2.2c3.5-0.6,5.6-0.9,6.3-0.9c0.5,0,0.7,0.2,0.7,0.6c0,0.7-0.2,1.5-0.6,2.3
			c-0.8,2.3-1.2,4.5-1.2,6.5c0,2.6,1.5,6.1,4.5,10.6s4.5,8.6,4.5,12.4c0,7.6-3.6,14.9-10.9,22c-7.3,7-14.8,10.6-22.6,10.6
			c-3.4,0-6.5-0.9-9.2-2.7c-2.8-1.8-4.2-3.7-4.2-5.7c0-1.2,1.4-3.5,4.1-6.8c2.8-3.3,4.7-5,5.9-5c1.6,0,3,2,4.2,6.1s3.4,6.1,6.4,6.1
			s5.9-1.4,8.5-4.2c2.6-2.8,4-5.8,4-9c0-3.1-1.7-7.3-5.1-12.5s-5.6-9.6-6.7-13.1c-5.8,9.3-13,18.8-21.9,28.5h-1.7v-6.7
			C219.3,95.1,227.5,82.8,231.8,71.2z"/>
		<path class="st0" d="M316.1,114.8c-6.3,6.2-11.7,10.8-16.2,13.7c-4.6,3-8.9,4.4-13,4.4c-4.3,0-7.7-1.8-10.4-5.4s-4-8.3-4-14.2
			c0-5.2,1.3-12,3.8-20.4l3.2-11.3l-5.7,0.3l2.4-11.7l7.1-0.3l7-23.2l19.9-4.1l-7.7,25.9L313,68l-2.5,11.5L299,80.3L294,97
			c-1.7,5.8-2.6,10.4-2.6,13.8c0,2.3,0.6,4.2,1.8,5.7s2.7,2.2,4.5,2.2c2.5,0,5-0.8,7.5-2.4s6.1-5,11-10.1L316.1,114.8L316.1,114.8z"
			/>
		<path class="st0" d="M398.1,114.8c-7.9,7.5-13.6,12.5-17,14.7s-6.7,3.4-9.8,3.4c-7.8,0-11.5-6.9-11.1-20.8
			c-5,7.1-9.5,12.3-13.7,15.7s-8.5,5.1-13,5.1c-4.4,0-8.1-2-11.1-6.1s-4.6-9.1-4.6-15.1c0-7.4,2-14.5,6.1-21.3s9.3-12.2,15.7-16.4
			c6.4-4.2,12.1-6.3,17-6.3c6.2,0,10.5,2.9,13,8.6l15.2-8.4h4.2l-6.6,21.8c-3.4,11-5.1,18.5-5.1,22.5c0,4.3,1.5,6.4,4.5,6.4
			c1.9,0,4.1-1,6.4-3.1s5.6-5.2,9.8-9.4L398.1,114.8L398.1,114.8z M343.7,118.9c5,0,9.6-4.2,14-12.7s6.6-16.3,6.6-23.4
			c0-2.8-0.6-5-1.9-6.5s-2.9-2.3-5-2.3c-5,0-9.7,4.2-14.1,12.6s-6.7,16.2-6.7,23.3c0,2.7,0.7,4.9,2,6.5
			C339.9,118,341.6,118.9,343.7,118.9z"/>
		<path class="st0" d="M480.1,114.8c-6.3,6.1-16.4,12.4-30.2,18.8c-4.6,13.1-9.8,22.4-15.6,27.8s-11.8,8.1-18,8.1
			c-3.2,0-5.7-1-7.6-2.9s-2.9-4.5-2.9-7.7c0-9.8,9-18.6,26.9-26.6l4.5-16c-9.4,10.5-17.6,15.7-24.7,15.7c-3.8,0-6.9-1.6-9.3-4.7
			c-2.4-3.1-3.5-7.3-3.5-12.5c0-7.5,1.6-15.5,4.9-24.1l7.1-18.9l21.6-3.8L424,90.1c-4.3,10.7-6.4,18.7-6.3,24.1
			c0,4.5,1.5,6.7,4.5,6.7c3.1,0,6.6-2.5,10.5-7.4s7.3-11.1,9.9-18.3l8.5-23.4l20.3-3.8l-19.3,58.2c11.4-5.2,20.7-11.9,27.9-20
			L480.1,114.8L480.1,114.8z M430.6,139.6c-6.1,2.7-10.8,5.8-14.1,9.2s-5,6.7-5,10s1.4,5,4.2,5C421.3,163.8,426.2,155.8,430.6,139.6
			z"/>
		<path class="st1" d="M617.6,114.9c-6,6.3-11.5,10.9-16.5,13.8c-4.9,2.9-10,4.4-15.2,4.4c-5.8,0-10.8-2.6-14.8-7.7s-6-12.7-6-22.6
			c0-4.1,0.5-9.5,1.5-16.1c-7.4,0.6-12,0.9-13.6,1c-3.1,16.4-8.6,28-16.5,35s-16.8,10.5-26.7,10.5c-7.3,0-13.4-1.7-18.2-5.1
			c-4.8-3.4-7.1-6.7-7.1-9.9c0-2.3,1.8-5,5.3-8s6-4.5,7.3-4.5c1.9,0,2.9,2.1,2.9,6.3c0,10.3,3.5,15.4,10.3,15.4
			c5.1,0,9.3-2.8,12.6-8.5s6-15,8-28.1c-6,0.8-11.8,3.8-17.7,8.7c-0.4-0.5-0.7-2.7-1-6.4c5.2-5.8,12.1-9.8,20.7-12.1
			c1.7-8,3.9-14.6,6.5-19.6s9.3-12.9,20-23.4c-5.2,2-9.4,3-12.7,3c-2.1,0-4.8-0.6-8-1.7c-3.2-1.1-5.8-1.7-7.7-1.7
			c-4.2,0-7.7,1.5-10.3,4.6c-2.7,3-4,6.2-4,9.3c0,3.2,1.7,6.1,5.1,8.7c1.5,0.9,2.3,1.8,2.3,2.7c0,1.5-1,3.3-3,5.5
			c-2,2.2-3.8,3.3-5.6,3.3c-1.9,0-3.7-1.4-5.4-4.1s-2.5-5.8-2.5-9.1c0-7.3,3.6-14.7,10.8-22.1s14.3-11.1,21.4-11.1
			c1.5,0,4.5,0.6,8.9,1.9s7.4,1.9,9,1.9c3.2,0,6.3-1.4,9.3-4.2c3.8,2,5.7,3.2,5.7,3.7c0,0.7-1.5,2.5-4.5,5.5s-5.5,7.3-7.4,12.8
			s-4,15.9-6.1,31.1c5.7-0.3,10.7-0.7,15-1.3c2.3-7.7,4.7-14.2,7.3-19.4s5.6-10.6,9-15.9s6-8.6,7.8-9.8s5.7-2.5,11.5-4.1
			c5.9-1.5,8.8-2.3,8.9-2.3c0.6,0,0.9,0.1,0.9,0.5c0,0.7-1.1,2.7-3.3,5.8s-5.4,8.7-9.6,16.8c-4.2,8.1-7.7,16.7-10.7,25.8
			c5.4-0.9,10.8-3.3,16.5-7.1c0.7,0.3,1,0.7,1.2,1.3c0.2,0.6,0.2,2,0.2,4.3c-4.3,5.2-11.1,8.8-20.6,11c-2,9.7-3.1,16.5-3.1,20.5
			c0,4.9,1.1,8.7,3.2,11.6s5,4.3,8.5,4.3c2.9,0,5.8-0.9,8.7-2.8s6.6-5.4,11.1-10.7L617.6,114.9L617.6,114.9z"/>
		<path class="st1" d="M663.7,114.8c-6.3,6.2-12,10.8-17,13.7c-5,3-10.5,4.4-16.6,4.4c-6.8,0-12.2-2.2-16.3-6.5s-6.2-10-6.2-17
			c0-10.5,3.7-20,10.9-28.5s15.4-12.8,24.3-12.8c4.6,0,8.3,1.2,11.1,3.6s4.2,5.5,4.2,9.4c0,10.3-10.9,18.6-32.8,25
			c2,9.7,7.2,14.5,15.5,14.5c3.3,0,6.4-0.9,9.4-2.6s7.5-5.7,13.5-11.7L663.7,114.8L663.7,114.8z M624.7,101
			c12.7-3.6,19-10.2,19-19.8c0-4.8-1.7-7.1-5.2-7.1c-3.3,0-6.4,2.5-9.4,7.5C626.2,86.5,624.7,93,624.7,101z"/>
		<path class="st1" d="M757.8,114.8c-7.9,7.5-13.6,12.5-17,14.7c-3.4,2.3-6.7,3.4-9.8,3.4c-7.8,0-11.5-6.9-11.1-20.8
			c-5,7.1-9.5,12.3-13.7,15.7s-8.5,5.1-13,5.1c-4.4,0-8.1-2-11.1-6.1s-4.6-9.1-4.6-15.1c0-7.4,2-14.5,6.1-21.3s9.3-12.2,15.7-16.4
			c6.4-4.2,12.1-6.3,17-6.3c6.2,0,10.5,2.9,13,8.6l15.2-8.4h4.2l-6.6,21.8c-3.4,11-5.1,18.5-5.1,22.5c0,4.3,1.5,6.4,4.5,6.4
			c1.9,0,4.1-1,6.4-3.1s5.6-5.2,9.8-9.4L757.8,114.8L757.8,114.8z M703.4,118.9c5,0,9.6-4.2,14-12.7s6.6-16.3,6.6-23.4
			c0-2.8-0.6-5-1.9-6.5s-2.9-2.3-5-2.3c-5,0-9.7,4.2-14.1,12.6c-4.4,8.4-6.7,16.2-6.7,23.3c0,2.7,0.7,4.9,2,6.5
			C699.6,118,701.3,118.9,703.4,118.9z"/>
		<path class="st1" d="M809.6,114.8c-6.8,6.2-12.7,10.8-17.8,13.7s-9.9,4.4-14.5,4.4c-5.3,0-9.6-2.1-12.8-6.2s-4.9-9.6-4.9-16.6
			c0-10.4,2.3-22.9,6.8-37.5s10-28,16.5-40.3l18.9-7c0.6-0.2,1-0.3,1.3-0.3c1.4,0,2.6,1,3.5,3.2c0.9,2.1,1.4,5,1.4,8.5
			c0,10.1-2.3,19.9-7,29.4s-12,19.6-21.9,30.4c-0.4,5.2-0.6,8.7-0.6,10.6c0,4.3,0.8,7.7,2.4,10.3s3.7,3.8,6.3,3.8
			c2.7,0,5.5-1,8.6-2.9c3-1.9,7.6-6,13.8-12.1V114.8L809.6,114.8z M781.1,85.7c6.3-7,11.4-14.9,15.3-23.5c3.9-8.7,5.9-16.2,5.9-22.4
			c0-1.8-0.3-3.3-0.8-4.4c-0.5-1.1-1.2-1.7-2.1-1.7c-1.8,0-4.5,4.6-8,13.7C787.9,56.4,784.5,69.2,781.1,85.7z"/>
		<path class="st2" d="M855.1,114.8c-6.3,6.2-11.7,10.8-16.2,13.7c-4.6,3-8.9,4.4-13,4.4c-4.3,0-7.7-1.8-10.4-5.4s-4-8.3-4-14.2
			c0-5.2,1.3-12,3.8-20.4l3.2-11.3l-5.7,0.3l2.4-11.7l7.1-0.3l7-23.2l19.9-4.1l-7.7,25.9l10.5-0.6l-2.5,11.5L838,80.3L833,97
			c-1.7,5.8-2.6,10.4-2.6,13.8c0,2.3,0.6,4.2,1.8,5.7s2.7,2.2,4.5,2.2c2.5,0,5-0.8,7.5-2.4s6.1-5,11-10.1L855.1,114.8L855.1,114.8z"
			/>
		<path class="st2" d="M930.7,114.8c-11.8,12.2-21.4,18.3-29,18.3c-3.4,0-6.2-1.1-8.4-3.5c-2.2-2.3-3.3-5.2-3.3-8.7
			c0-6,2.3-14.3,6.8-25.1c2.4-5.9,3.7-9.7,3.7-11.5c0-2-1-3-2.9-3c-2,0-4.9,1.4-8.6,4.1c-3.8,2.7-7.7,6.4-11.9,11
			c-1.7,9.1-2.6,20.1-2.6,32.9l-16.6,3.9c-0.7-5.2-1-10.9-1-17c0-14.8,2-28.5,6.1-41.3s10.5-26.3,19.2-40.6c6.5-2.6,12.2-4.8,17-6.4
			c4.8-1.7,7.6-2.5,8.3-2.5c1.3,0,2.4,1,3.3,3.1c0.9,2.1,1.3,4.7,1.3,7.8c0,5.3-1.6,11.1-4.8,17.5s-8.3,14.1-15.2,23.1
			c6.6-3.8,11-6.2,13.2-7.2s4.4-1.5,6.7-1.5c2.5,0,4.6,0.9,6.2,2.7c1.6,1.8,2.3,4.2,2.3,7.2c0,4.5-1.8,11.4-5.3,20.8
			c-3.6,9.4-5.3,15.3-5.3,17.6c0,1.1,0.3,2.1,1,2.9s1.4,1.3,2.3,1.3c3.2,0,9-4.8,17.6-14.4L930.7,114.8L930.7,114.8z M879.1,84.3
			c17.7-20.6,26.6-35.8,26.6-45.5c0-3-0.8-4.5-2.5-4.5c-2.7,0-6.6,4.9-11.7,14.7C886.5,58.7,882.3,70.5,879.1,84.3z"/>
		<path class="st2" d="M1012.7,114.8c-6.3,6.1-16.4,12.4-30.2,18.8c-4.6,13.1-9.8,22.4-15.6,27.8s-11.8,8.1-18,8.1
			c-3.2,0-5.7-1-7.6-2.9s-2.9-4.5-2.9-7.7c0-9.8,8.9-18.6,26.9-26.6l4.5-16c-9.4,10.5-17.6,15.7-24.7,15.7c-3.8,0-6.9-1.6-9.3-4.7
			s-3.5-7.3-3.5-12.5c0-7.5,1.6-15.5,4.9-24.1l7.1-18.9l21.6-3.8l-9.3,22.1c-4.3,10.7-6.4,18.7-6.3,24.1c0,4.5,1.5,6.7,4.5,6.7
			c3.1,0,6.6-2.5,10.5-7.4c3.9-5,7.3-11.1,9.9-18.3l8.5-23.4L1004,68l-19.3,58.2c11.4-5.2,20.7-11.9,27.9-20L1012.7,114.8
			L1012.7,114.8z M963.1,139.6c-6.1,2.7-10.8,5.8-14.1,9.2s-4.9,6.7-4.9,10s1.4,5,4.2,5C953.8,163.8,958.7,155.8,963.1,139.6z"/>
	</g>
	<g>
		<g>
			<circle id="SVGID_1_" class="st1" cx="110.9" cy="97.1" r="89.6"/>
		</g>
		<g>
			<g>
				<defs>
					<circle id="SVGID_2_" cx="110.9" cy="97.1" r="89.6"/>
				</defs>
				<clipPath id="SVGID_3_">
					<use xlink:href="#SVGID_2_"  style="overflow:visible;"/>
				</clipPath>
				<g transform="matrix(1 0 0 1 -1.525879e-05 0)" class="st3">
					
						<image style="overflow:visible;enable-background:new    ;" width="564" height="595" xlink:href="icon-image.jpg"  transform="matrix(0.3286 0 0 0.3286 18.1684 -1.3484)">
					</image>
				</g>
			</g>
		</g>
	</g>
</g>
<g id="Layer_2_1_">
</g>
</svg>
